<svg xmlns="http://www.w3.org/2000/svg" viewBox="0 0 90 90">
    <defs>
        <style>
            .cls-1{fill:#bbbbbb;}.cls-2{fill:#fc6e51;}.cls-3{fill:#ffd900;}.cls-4{fill:#9cc925;}.cls-5{fill:#43a6dd;}.cls-6{fill:#207ba9;}
        </style>
    </defs>
    <title>cloud-rainbow</title>
    <g id="cloud-rainbow">
        <path class="cls-1"
              d="M68.42,35.29c.06-.69.1-1.39.1-2.1a21.7,21.7,0,0,0-42.22-7.41,22.19,22.19,0,0,0,.62,44.37H67.77a17.44,17.44,0,0,0,.65-34.86Z"/>
        <path class="cls-2"
              d="M18.24,78.83c0-.39,0-.79,0-1.19,0-14.39,12-26.09,26.79-26.09s26.79,11.7,26.79,26.09c0,.4,0,.79,0,1.19h4.87c0-.39,0-.79,0-1.19,0-17-14.18-30.83-31.67-30.83S13.33,60.62,13.33,77.65c0,.4,0,.79,0,1.19Z"/>
        <path class="cls-3"
              d="M23.14,78.83c0-.39-.06-.79-.06-1.19C23.08,65.88,32.91,56.3,45,56.3s21.92,9.58,21.92,21.35c0,.4,0,.79-.06,1.19h4.9c0-.39,0-.79,0-1.19,0-14.39-12-26.09-26.79-26.09S18.21,63.26,18.21,77.65c0,.4,0,.79,0,1.19Z"/>
        <path class="cls-4"
              d="M28,78.83c0-.39-.06-.79-.06-1.19a17.06,17.06,0,0,1,34.1,0c0,.4,0,.79-.06,1.19h4.87c0-.39.06-.79.06-1.19C66.92,65.88,57.09,56.3,45,56.3S23.08,65.88,23.08,77.65c0,.4,0,.79.06,1.19Z"/>
        <path class="cls-5"
              d="M32.88,78.83a11.63,11.63,0,0,1-.06-1.19,12.18,12.18,0,0,1,24.36,0,11.63,11.63,0,0,1-.06,1.19H62c0-.39.06-.79.06-1.19a17.06,17.06,0,0,0-34.1,0c0,.4,0,.79.06,1.19Z"/>
        <path class="cls-6"
              d="M37.8,78.83a6.92,6.92,0,0,1-.11-1.19,7.31,7.31,0,0,1,14.62,0,6.92,6.92,0,0,1-.11,1.19h4.92a11.63,11.63,0,0,0,.06-1.19,12.18,12.18,0,0,0-24.36,0,11.63,11.63,0,0,0,.06,1.19Z"/>
    </g>
</svg>